<svg width="48" height="48" viewBox="0 0 48 48" fill="none" xmlns="http://www.w3.org/2000/svg">
<rect width="48" height="48" rx="8" fill="#1CAE4E"/>
<path d="M4.47437 39.4905V25.3155H8.63237C10.1864 25.3155 11.5164 25.6025 12.6224 26.1765C13.7424 26.7365 14.5964 27.5415 15.1844 28.5915C15.7724 29.6415 16.0664 30.9085 16.0664 32.3925C16.0664 33.8625 15.7584 35.1295 15.1424 36.1935C14.5264 37.2435 13.6444 38.0555 12.4964 38.6295C11.3624 39.2035 9.99737 39.4905 8.40137 39.4905H4.47437ZM8.69537 27.6045H7.16237V37.2015H8.56937C10.0954 37.2015 11.2644 36.7885 12.0764 35.9625C12.9024 35.1225 13.3154 33.9395 13.3154 32.4135C13.3154 30.8595 12.9164 29.6695 12.1184 28.8435C11.3344 28.0175 10.1934 27.6045 8.69537 27.6045ZM21.0101 39.7635C19.9461 39.7635 19.0921 39.4765 18.4481 38.9025C17.8041 38.3145 17.4821 37.5445 17.4821 36.5925C17.4821 35.3465 17.9721 34.3875 18.9521 33.7155C19.9461 33.0435 21.3391 32.7075 23.1311 32.7075C23.4811 32.7075 23.7891 32.7145 24.0551 32.7285C23.9571 31.1885 23.1171 30.4185 21.5351 30.4185C20.4291 30.4185 19.3931 30.7615 18.4271 31.4475V29.3475C19.4771 28.6615 20.6461 28.3185 21.9341 28.3185C23.4181 28.3185 24.5521 28.7245 25.3361 29.5365C26.1341 30.3345 26.5331 31.4825 26.5331 32.9805V39.4905H24.3701L24.2231 38.2305C23.9011 38.7065 23.4531 39.0845 22.8791 39.3645C22.3191 39.6305 21.6961 39.7635 21.0101 39.7635ZM24.0551 34.4715C23.7611 34.4575 23.4671 34.4505 23.1731 34.4505C22.1371 34.4505 21.3391 34.6115 20.7791 34.9335C20.2331 35.2415 19.9601 35.6965 19.9601 36.2985C19.9601 36.7745 20.1211 37.1665 20.4431 37.4745C20.7651 37.7685 21.1921 37.9155 21.7241 37.9155C22.3681 37.9155 22.9141 37.6845 23.3621 37.2225C23.8241 36.7605 24.0551 36.2005 24.0551 35.5425V34.4715ZM32.8301 39.7005C30.4501 39.7005 29.2601 38.4615 29.2601 35.9835V30.6075H27.5381V28.5915H29.2601V25.6935H31.8641V28.5915H34.3001V30.6075H31.8641V35.7525C31.8641 36.9845 32.3821 37.6005 33.4181 37.6005C33.8101 37.6005 34.2021 37.4955 34.5941 37.2855V39.3225C34.0901 39.5745 33.5021 39.7005 32.8301 39.7005ZM39.2415 39.7635C38.1775 39.7635 37.3235 39.4765 36.6795 38.9025C36.0355 38.3145 35.7135 37.5445 35.7135 36.5925C35.7135 35.3465 36.2035 34.3875 37.1835 33.7155C38.1775 33.0435 39.5705 32.7075 41.3625 32.7075C41.7125 32.7075 42.0205 32.7145 42.2865 32.7285C42.1885 31.1885 41.3485 30.4185 39.7665 30.4185C38.6605 30.4185 37.6245 30.7615 36.6585 31.4475V29.3475C37.7085 28.6615 38.8775 28.3185 40.1655 28.3185C41.6495 28.3185 42.7835 28.7245 43.5675 29.5365C44.3655 30.3345 44.7645 31.4825 44.7645 32.9805V39.4905H42.6015L42.4545 38.2305C42.1325 38.7065 41.6845 39.0845 41.1105 39.3645C40.5505 39.6305 39.9275 39.7635 39.2415 39.7635ZM42.2865 34.4715C41.9925 34.4575 41.6985 34.4505 41.4045 34.4505C40.3685 34.4505 39.5705 34.6115 39.0105 34.9335C38.4645 35.2415 38.1915 35.6965 38.1915 36.2985C38.1915 36.7745 38.3525 37.1665 38.6745 37.4745C38.9965 37.7685 39.4235 37.9155 39.9555 37.9155C40.5995 37.9155 41.1455 37.6845 41.5935 37.2225C42.0555 36.7605 42.2865 36.2005 42.2865 35.5425V34.4715Z" fill="white"/>
</svg>
