<svg width="47" height="47" viewBox="0 0 47 47" fill="none" xmlns="http://www.w3.org/2000/svg">
<path d="M47 11.9269V28.5225C47 35.1093 40.7993 40.4494 33.1512 40.4494H31.7504L24.5973 46.6059C24.3171 46.8472 23.9296 47 23.5 47C23.1031 47 22.7436 46.8753 22.4681 46.6662L22.3467 46.5617L22.342 46.5577L15.2496 40.4494H13.8441C6.20068 40.4494 0 35.1093 0 28.5225V11.9269C0 5.34018 6.20068 0 13.8488 0H33.1512C40.7993 0 47 5.34018 47 11.9269Z" fill="#FFD666"/>
<path d="M7.47935 23.9902C6.11594 23.9902 5.33883 25.3282 6.1299 26.2944C9.20573 30.0578 14.2918 32.5114 20.0386 32.5114C25.7855 32.5114 30.8669 30.0537 33.9427 26.2944C34.7338 25.3282 33.9567 23.9902 32.5933 23.9902H7.47935Z" fill="white"/>
<path d="M15.4646 18.2945H7.23755V14.7211C7.23755 12.7485 9.08026 11.1477 11.3511 11.1477C13.6219 11.1477 15.4646 12.7485 15.4646 14.7211V18.2945Z" fill="white"/>
<path d="M32.8397 18.2945H24.6127V14.7211C24.6127 12.7485 26.4554 11.1477 28.7262 11.1477C30.997 11.1477 32.8397 12.7485 32.8397 14.7211V18.2945Z" fill="white"/>
</svg>
