<svg width="116" height="18" viewBox="0 0 116 18" fill="none" xmlns="http://www.w3.org/2000/svg">
<path d="M0.816 6.856H1.428L1.488 7.972C1.672 7.58 1.944 7.272 2.304 7.048C2.672 6.816 3.08 6.7 3.528 6.7C4.032 6.7 4.472 6.84 4.848 7.12C5.224 7.392 5.512 7.768 5.712 8.248C5.912 8.728 6.012 9.276 6.012 9.892C6.012 10.884 5.776 11.676 5.304 12.268C4.84 12.86 4.22 13.156 3.444 13.156C3.02 13.156 2.64 13.056 2.304 12.856C1.976 12.656 1.712 12.368 1.512 11.992V15.28H0.816V6.856ZM3.372 12.544C3.964 12.544 4.432 12.308 4.776 11.836C5.128 11.364 5.304 10.724 5.304 9.916C5.304 9.116 5.128 8.484 4.776 8.02C4.432 7.548 3.964 7.312 3.372 7.312C2.804 7.312 2.348 7.552 2.004 8.032C1.66 8.504 1.488 9.128 1.488 9.904C1.488 10.44 1.568 10.908 1.728 11.308C1.896 11.708 2.12 12.016 2.4 12.232C2.688 12.44 3.012 12.544 3.372 12.544ZM9.60103 13.156C9.05703 13.156 8.58103 13.016 8.17303 12.736C7.76503 12.456 7.44903 12.076 7.22503 11.596C7.00903 11.108 6.90103 10.556 6.90103 9.94C6.90103 9.284 7.01703 8.712 7.24903 8.224C7.48903 7.736 7.81303 7.36 8.22103 7.096C8.62903 6.832 9.09303 6.7 9.61303 6.7C10.157 6.7 10.633 6.84 11.041 7.12C11.457 7.392 11.773 7.772 11.989 8.26C12.205 8.74 12.313 9.292 12.313 9.916C12.313 10.572 12.193 11.144 11.953 11.632C11.721 12.12 11.401 12.496 10.993 12.76C10.585 13.024 10.121 13.156 9.60103 13.156ZM9.61303 12.532C10.221 12.532 10.705 12.296 11.065 11.824C11.425 11.352 11.605 10.72 11.605 9.928C11.605 9.144 11.421 8.516 11.053 8.044C10.693 7.564 10.209 7.324 9.60103 7.324C8.99303 7.324 8.50903 7.56 8.14903 8.032C7.78903 8.496 7.60903 9.128 7.60903 9.928C7.60903 10.712 7.78903 11.344 8.14903 11.824C8.51703 12.296 9.00503 12.532 9.61303 12.532ZM12.8125 6.856H13.5445L14.9005 12.136L16.3165 7.096H17.0245L18.4405 12.136L19.7965 6.856H20.5165L18.8245 13H18.0805L16.6525 7.984L15.2365 13H14.5045L12.8125 6.856ZM23.7944 13.156C22.9384 13.156 22.2584 12.864 21.7544 12.28C21.2584 11.696 21.0104 10.904 21.0104 9.904C21.0104 9.248 21.1184 8.68 21.3344 8.2C21.5584 7.712 21.8664 7.34 22.2584 7.084C22.6504 6.828 23.1024 6.7 23.6144 6.7C24.3504 6.7 24.9264 6.964 25.3424 7.492C25.7664 8.02 25.9784 8.748 25.9784 9.676V10.096H21.6944C21.7344 10.856 21.9424 11.452 22.3184 11.884C22.6944 12.308 23.2064 12.52 23.8544 12.52C24.5184 12.52 25.1064 12.336 25.6184 11.968V12.628C25.0984 12.98 24.4904 13.156 23.7944 13.156ZM23.5784 7.312C23.0264 7.312 22.5864 7.504 22.2584 7.888C21.9384 8.272 21.7544 8.816 21.7064 9.52H25.3184C25.3024 8.824 25.1424 8.284 24.8384 7.9C24.5344 7.508 24.1144 7.312 23.5784 7.312ZM27.2301 6.856H27.8421L27.8901 7.804C28.0341 7.468 28.2421 7.208 28.5141 7.024C28.7941 6.832 29.1061 6.736 29.4501 6.736C29.6581 6.736 29.8421 6.764 30.0021 6.82V7.456C29.8421 7.4 29.6541 7.372 29.4381 7.372C28.9821 7.372 28.6141 7.556 28.3341 7.924C28.0621 8.292 27.9261 8.78 27.9261 9.388V13H27.2301V6.856ZM33.3569 13.156C32.5009 13.156 31.8209 12.864 31.3169 12.28C30.8209 11.696 30.5729 10.904 30.5729 9.904C30.5729 9.248 30.6809 8.68 30.8969 8.2C31.1209 7.712 31.4289 7.34 31.8209 7.084C32.2129 6.828 32.6649 6.7 33.1769 6.7C33.9129 6.7 34.4889 6.964 34.9049 7.492C35.3289 8.02 35.5409 8.748 35.5409 9.676V10.096H31.2569C31.2969 10.856 31.5049 11.452 31.8809 11.884C32.2569 12.308 32.7689 12.52 33.4169 12.52C34.0809 12.52 34.6689 12.336 35.1809 11.968V12.628C34.6609 12.98 34.0529 13.156 33.3569 13.156ZM33.1409 7.312C32.5889 7.312 32.1489 7.504 31.8209 7.888C31.5009 8.272 31.3169 8.816 31.2689 9.52H34.8809C34.8649 8.824 34.7049 8.284 34.4009 7.9C34.0969 7.508 33.6769 7.312 33.1409 7.312ZM39.0218 13.156C38.5178 13.156 38.0778 13.02 37.7018 12.748C37.3258 12.476 37.0378 12.1 36.8378 11.62C36.6378 11.14 36.5378 10.588 36.5378 9.964C36.5378 8.972 36.7698 8.18 37.2338 7.588C37.7058 6.996 38.3298 6.7 39.1058 6.7C39.5218 6.7 39.8938 6.8 40.2218 7C40.5578 7.2 40.8298 7.492 41.0378 7.876V4.06H41.7338V13H41.1218L41.0618 11.896C40.8778 12.288 40.6018 12.596 40.2338 12.82C39.8738 13.044 39.4698 13.156 39.0218 13.156ZM39.1777 12.544C39.7458 12.544 40.2018 12.308 40.5458 11.836C40.8898 11.356 41.0618 10.728 41.0618 9.952C41.0618 9.416 40.9778 8.948 40.8098 8.548C40.6498 8.148 40.4258 7.844 40.1378 7.636C39.8578 7.42 39.5378 7.312 39.1777 7.312C38.5858 7.312 38.1138 7.552 37.7618 8.032C37.4178 8.504 37.2458 9.14 37.2458 9.94C37.2458 10.74 37.4178 11.376 37.7618 11.848C38.1138 12.312 38.5858 12.544 39.1777 12.544ZM48.0338 13.156C47.5938 13.156 47.2058 13.052 46.8698 12.844C46.5338 12.628 46.2658 12.324 46.0658 11.932L46.0178 13H45.4058V4.06H46.1018V7.924C46.2938 7.548 46.5698 7.252 46.9298 7.036C47.2898 6.812 47.6858 6.7 48.1178 6.7C48.6218 6.7 49.0618 6.84 49.4378 7.12C49.8138 7.392 50.1018 7.768 50.3018 8.248C50.5018 8.728 50.6018 9.276 50.6018 9.892C50.6018 10.884 50.3658 11.676 49.8938 12.268C49.4298 12.86 48.8098 13.156 48.0338 13.156ZM47.9618 12.544C48.5538 12.544 49.0218 12.308 49.3658 11.836C49.7178 11.364 49.8938 10.724 49.8938 9.916C49.8938 9.116 49.7178 8.484 49.3658 8.02C49.0218 7.548 48.5538 7.312 47.9618 7.312C47.3938 7.312 46.9378 7.552 46.5938 8.032C46.2498 8.504 46.0778 9.128 46.0778 9.904C46.0778 10.44 46.1578 10.908 46.3178 11.308C46.4858 11.708 46.7098 12.016 46.9898 12.232C47.2778 12.44 47.6018 12.544 47.9618 12.544ZM51.9617 15.436C51.7777 15.436 51.6137 15.412 51.4697 15.364V14.74C51.6057 14.788 51.7537 14.812 51.9137 14.812C52.2257 14.812 52.4817 14.696 52.6817 14.464C52.8897 14.232 53.1057 13.812 53.3297 13.204L53.4617 12.844L51.0977 6.856H51.8657L53.7977 12.004L55.6097 6.856H56.3417L53.9057 13.42C53.7217 13.924 53.5377 14.32 53.3537 14.608C53.1777 14.896 52.9777 15.104 52.7537 15.232C52.5377 15.368 52.2737 15.436 51.9617 15.436ZM63.0229 13.156C62.1989 13.156 61.4789 12.98 60.8629 12.628C60.2469 12.276 59.7749 11.788 59.4469 11.164C59.1189 10.54 58.9549 9.824 58.9549 9.016C58.9549 8.152 59.1349 7.396 59.4949 6.748C59.8549 6.1 60.3509 5.604 60.9829 5.26C61.6149 4.916 62.3389 4.744 63.1549 4.744C63.5389 4.744 63.9109 4.788 64.2709 4.876C64.6309 4.964 64.9509 5.088 65.2309 5.248V6.652C64.9429 6.468 64.6229 6.324 64.2709 6.22C63.9269 6.116 63.5869 6.064 63.2509 6.064C62.3949 6.064 61.7229 6.324 61.2349 6.844C60.7469 7.356 60.5029 8.056 60.5029 8.944C60.5029 9.856 60.7389 10.568 61.2109 11.08C61.6829 11.592 62.3389 11.848 63.1789 11.848C63.5229 11.848 63.8309 11.808 64.1029 11.728V9.868H62.4829V8.608H65.5429V12.616C64.8389 12.976 63.9989 13.156 63.0229 13.156ZM69.7733 13.156C68.7973 13.156 68.0333 12.864 67.4813 12.28C66.9293 11.696 66.6533 10.892 66.6533 9.868C66.6533 9.212 66.7733 8.64 67.0133 8.152C67.2613 7.656 67.6013 7.276 68.0333 7.012C68.4653 6.748 68.9573 6.616 69.5093 6.616C70.3173 6.616 70.9533 6.888 71.4173 7.432C71.8813 7.976 72.1133 8.728 72.1133 9.688V10.36H68.0813C68.1613 10.888 68.3613 11.288 68.6813 11.56C69.0013 11.832 69.4293 11.968 69.9653 11.968C70.5573 11.968 71.1453 11.816 71.7293 11.512V12.7C71.1693 13.004 70.5173 13.156 69.7733 13.156ZM69.4492 7.756C69.0573 7.756 68.7413 7.892 68.5013 8.164C68.2693 8.428 68.1253 8.816 68.0693 9.328H70.7333C70.7173 8.832 70.5973 8.448 70.3733 8.176C70.1493 7.896 69.8413 7.756 69.4492 7.756ZM73.1408 6.772H74.4488L74.5328 7.528C74.7408 7.232 75.0008 7.008 75.3128 6.856C75.6328 6.696 75.9848 6.616 76.3688 6.616C77.0248 6.616 77.5488 6.84 77.9408 7.288C78.3328 7.736 78.5287 8.332 78.5287 9.076V13H77.0408V9.304C77.0408 8.84 76.9408 8.484 76.7408 8.236C76.5408 7.988 76.2528 7.864 75.8768 7.864C75.5008 7.864 75.1968 7.996 74.9648 8.26C74.7408 8.516 74.6288 8.864 74.6288 9.304V13H73.1408V6.772ZM84.2955 4.9H85.9635L88.8555 13H87.2835L86.6595 11.128H83.5515L82.9395 13H81.4035L84.2955 4.9ZM83.9355 9.94H86.2755L85.0995 6.376L83.9355 9.94ZM89.7462 6.772H91.2342V13H89.7462V6.772ZM90.4902 5.836C90.2342 5.836 90.0182 5.752 89.8422 5.584C89.6742 5.416 89.5902 5.208 89.5902 4.96C89.5902 4.712 89.6742 4.504 89.8422 4.336C90.0182 4.168 90.2342 4.084 90.4902 4.084C90.7462 4.084 90.9582 4.168 91.1262 4.336C91.3022 4.504 91.3902 4.712 91.3902 4.96C91.3902 5.208 91.3022 5.416 91.1262 5.584C90.9582 5.752 90.7462 5.836 90.4902 5.836Z" fill="white"/>
<path d="M109.383 10.0444C109.498 10.0444 109.592 10.1382 109.592 10.2536C109.592 10.3691 109.498 10.4628 109.383 10.4628H108.336V10.672C108.336 11.0195 108.056 11.2999 107.708 11.2999H107.499V12.3467C107.499 12.4621 107.405 12.5559 107.29 12.5559C107.174 12.5559 107.081 12.4621 107.081 12.3467V11.2999H106.243V12.3467C106.243 12.4621 106.15 12.5559 106.034 12.5559C105.919 12.5559 105.825 12.4621 105.825 12.3467V11.2999H104.988V12.3467C104.988 12.4621 104.894 12.5559 104.779 12.5559C104.663 12.5559 104.57 12.4621 104.57 12.3467V11.2999H104.36C104.013 11.2999 103.732 11.0195 103.732 10.672V10.4628H102.686C102.57 10.4628 102.476 10.3691 102.476 10.2536C102.476 10.1382 102.57 10.0444 102.686 10.0444H103.732V9.20728H102.686C102.57 9.20728 102.476 9.11353 102.476 8.99809C102.476 8.88265 102.57 8.78891 102.686 8.78891H103.732V7.95176H102.686C102.57 7.95176 102.476 7.85802 102.476 7.74257C102.476 7.62713 102.57 7.53339 102.686 7.53339H103.732V7.3242C103.732 6.97666 104.013 6.69624 104.36 6.69624H104.57V5.6495C104.57 5.53406 104.663 5.44031 104.779 5.44031C104.894 5.44031 104.988 5.53406 104.988 5.6495V6.69624H105.825V5.6495C105.825 5.53406 105.919 5.44031 106.034 5.44031C106.15 5.44031 106.243 5.53406 106.243 5.6495V6.69624H107.081V5.6495C107.081 5.53406 107.174 5.44031 107.29 5.44031C107.405 5.44031 107.499 5.53406 107.499 5.6495V6.69624H107.708C108.056 6.69624 108.336 6.97666 108.336 7.3242V7.53339H109.383C109.498 7.53339 109.592 7.62713 109.592 7.74257C109.592 7.85802 109.498 7.95176 109.383 7.95176H108.336V8.78891H109.383C109.498 8.78891 109.592 8.88265 109.592 8.99809C109.592 9.11353 109.498 9.20728 109.383 9.20728H108.336V10.0444H109.383ZM107.918 7.32339C107.918 7.20631 107.826 7.1142 107.709 7.1142H104.36C104.242 7.1142 104.15 7.20631 104.15 7.32339V10.6724C104.15 10.7895 104.242 10.8816 104.36 10.8816H107.709C107.826 10.8816 107.918 10.7895 107.918 10.6724V7.32339ZM114.197 6.90461C113.808 6.90461 113.481 6.63647 113.389 6.27664H112.609L111.833 7.0528C111.794 7.0921 111.741 7.1142 111.685 7.1142H110.848V8.78891H112.586C112.659 8.6661 112.788 8.57972 112.941 8.57972C113.172 8.57972 113.36 8.76721 113.36 8.9985C113.36 9.22979 113.172 9.41728 112.941 9.41728C112.788 9.41728 112.659 9.33091 112.586 9.2081H110.848V10.8828H111.685C111.741 10.8828 111.794 10.9049 111.833 10.9442L112.609 11.7204H113.389C113.481 11.3605 113.808 11.0924 114.197 11.0924C114.658 11.0924 115.034 11.469 115.034 11.9295C115.034 12.3901 114.658 12.7667 114.197 12.7667C113.808 12.7667 113.481 12.4986 113.389 12.1387H112.523C112.467 12.1387 112.414 12.1166 112.374 12.0773L111.598 11.3012H110.848V12.3479C110.848 13.156 110.19 13.813 109.382 13.813H108.336V14.5638L109.112 15.34C109.151 15.3793 109.173 15.4325 109.173 15.4881V16.3548C109.533 16.4469 109.801 16.7735 109.801 17.1629C109.801 17.6234 109.425 18 108.964 18C108.504 18 108.127 17.6234 108.127 17.1629C108.127 16.7735 108.395 16.4469 108.755 16.3548V15.5749L107.979 14.7988C107.939 14.7595 107.917 14.7063 107.917 14.6506V13.8134H106.243V15.552C106.365 15.6249 106.452 15.7534 106.452 15.9065C106.452 16.1378 106.264 16.3253 106.033 16.3253C105.802 16.3253 105.614 16.1378 105.614 15.9065C105.614 15.7534 105.701 15.6249 105.823 15.552V13.8134H104.149V14.6506C104.149 14.7063 104.127 14.7595 104.087 14.7988L103.311 15.5749V16.3548C103.671 16.4469 103.939 16.7735 103.939 17.1629C103.939 17.6234 103.562 18 103.102 18C102.641 18 102.265 17.6234 102.265 17.1629C102.265 16.7735 102.533 16.4469 102.893 16.3548V15.4881C102.893 15.4325 102.915 15.3793 102.954 15.34L103.73 14.5638V13.813H102.684C101.875 13.813 101.218 13.1556 101.218 12.3479V11.3012H100.468L99.6915 12.0773C99.6522 12.1166 99.599 12.1387 99.5433 12.1387H98.6767C98.5846 12.4986 98.2579 12.7667 97.8686 12.7667C97.4081 12.7667 97.0315 12.3901 97.0315 11.9295C97.0315 11.469 97.4081 11.0924 97.8686 11.0924C98.2579 11.0924 98.5846 11.3605 98.6767 11.7204H99.4566L100.233 10.9442C100.272 10.9049 100.325 10.8828 100.381 10.8828H101.218V9.2081H99.4795C99.4066 9.33091 99.2785 9.41728 99.125 9.41728C98.8937 9.41728 98.7062 9.22979 98.7062 8.9985C98.7062 8.76721 98.8937 8.57972 99.125 8.57972C99.2781 8.57972 99.4066 8.6661 99.4795 8.78891H101.218V7.1142H100.381C100.325 7.1142 100.272 7.0921 100.233 7.0528L99.4566 6.27664H98.6767C98.5846 6.63647 98.2579 6.90461 97.8686 6.90461C97.4081 6.90461 97.0315 6.52799 97.0315 6.06746C97.0315 5.60693 97.4081 5.23031 97.8686 5.23031C98.2579 5.23031 98.5846 5.49844 98.6767 5.85827H99.5433C99.599 5.85827 99.6522 5.88038 99.6915 5.91968L100.468 6.69583H101.218V5.64909C101.218 4.84101 101.876 4.18398 102.684 4.18398H103.73V3.4332L102.954 2.65705C102.915 2.61775 102.893 2.56453 102.893 2.50886V1.64224C102.533 1.55013 102.265 1.22346 102.265 0.834154C102.265 0.373621 102.641 -0.00299454 103.102 -0.00299454C103.562 -0.00299454 103.939 0.373621 103.939 0.834154C103.939 1.22346 103.671 1.55013 103.311 1.64224V2.42208L104.087 3.19823C104.127 3.23753 104.149 3.29075 104.149 3.34642V4.18357H105.823V2.445C105.701 2.37213 105.614 2.244 105.614 2.09049C105.614 1.8592 105.802 1.67171 106.033 1.67171C106.264 1.67171 106.452 1.8592 106.452 2.09049C106.452 2.24359 106.365 2.37213 106.243 2.445V4.18357H107.917V3.34642C107.917 3.29075 107.939 3.23753 107.979 3.19823L108.755 2.42208V1.64224C108.395 1.55013 108.127 1.22346 108.127 0.834154C108.127 0.373621 108.504 -0.00299454 108.964 -0.00299454C109.425 -0.00299454 109.801 0.373621 109.801 0.834154C109.801 1.22346 109.533 1.55013 109.173 1.64224V2.50886C109.173 2.56453 109.151 2.61775 109.112 2.65705L108.336 3.4332V4.18398H109.382C110.19 4.18398 110.848 4.84142 110.848 5.64909V6.69583H111.598L112.374 5.91968C112.414 5.88038 112.467 5.85827 112.523 5.85827H113.389C113.481 5.49844 113.808 5.23031 114.197 5.23031C114.658 5.23031 115.034 5.60693 115.034 6.06746C115.034 6.52799 114.658 6.90461 114.197 6.90461ZM114.616 11.9283C114.616 11.6983 114.427 11.5095 114.197 11.5095C113.966 11.5095 113.778 11.6978 113.778 11.9283C113.778 12.1588 113.966 12.3471 114.197 12.3471C114.427 12.3471 114.616 12.1588 114.616 11.9283ZM108.964 17.58C109.194 17.58 109.383 17.3917 109.383 17.1612C109.383 16.9307 109.195 16.7424 108.964 16.7424C108.734 16.7424 108.545 16.9307 108.545 17.1612C108.545 17.3917 108.734 17.58 108.964 17.58ZM103.103 17.58C103.333 17.58 103.522 17.3917 103.522 17.1612C103.522 16.9307 103.334 16.7424 103.103 16.7424C102.873 16.7424 102.684 16.9307 102.684 17.1612C102.684 17.3917 102.873 17.58 103.103 17.58ZM97.4515 11.9283C97.4515 12.1584 97.6398 12.3471 97.8703 12.3471C98.1008 12.3471 98.2891 12.1588 98.2891 11.9283C98.2891 11.6978 98.1008 11.5095 97.8703 11.5095C97.6398 11.5095 97.4515 11.6978 97.4515 11.9283ZM97.4515 6.06746C97.4515 6.29752 97.6398 6.48624 97.8703 6.48624C98.1008 6.48624 98.2891 6.29793 98.2891 6.06746C98.2891 5.83699 98.1008 5.64868 97.8703 5.64868C97.6398 5.64868 97.4515 5.83699 97.4515 6.06746ZM103.103 0.415785C102.873 0.415785 102.684 0.604092 102.684 0.834562C102.684 1.06503 102.873 1.25334 103.103 1.25334C103.334 1.25334 103.522 1.06503 103.522 0.834562C103.522 0.604092 103.334 0.415785 103.103 0.415785ZM108.964 0.415785C108.734 0.415785 108.545 0.604092 108.545 0.834562C108.545 1.06503 108.734 1.25334 108.964 1.25334C109.195 1.25334 109.383 1.06503 109.383 0.834562C109.383 0.604092 109.195 0.415785 108.964 0.415785ZM110.43 5.64868C110.43 5.07107 109.961 4.60194 109.383 4.60194H102.684C102.107 4.60194 101.638 5.07066 101.638 5.64868V12.3471C101.638 12.9247 102.106 13.3938 102.684 13.3938H109.383C109.96 13.3938 110.43 12.9251 110.43 12.3471V5.64868ZM114.197 5.64868C113.967 5.64868 113.779 5.83699 113.779 6.06746C113.779 6.29793 113.967 6.48624 114.197 6.48624C114.428 6.48624 114.616 6.29793 114.616 6.06746C114.616 5.83699 114.428 5.64868 114.197 5.64868ZM110.281 13.5416L111.287 14.5474C111.279 14.581 111.267 14.6133 111.267 14.6494C111.267 14.8806 111.454 15.0681 111.685 15.0681C111.917 15.0681 112.104 14.8806 112.104 14.6494C112.104 14.4181 111.917 14.2306 111.685 14.2306C111.649 14.2306 111.617 14.2425 111.584 14.251L110.578 13.2452L110.282 13.5412L110.281 13.5416ZM99.9634 14.6498C99.9634 14.8811 100.151 15.0685 100.382 15.0685C100.613 15.0685 100.801 14.8811 100.801 14.6498C100.801 14.6137 100.789 14.5814 100.78 14.5478L101.786 13.542L101.49 13.2461L100.484 14.2519C100.451 14.2433 100.419 14.2314 100.383 14.2314C100.151 14.2314 99.9638 14.4189 99.9638 14.6502L99.9634 14.6498ZM101.786 4.45416L100.78 3.44835C100.789 3.41478 100.801 3.38244 100.801 3.34642C100.801 3.11513 100.613 2.92764 100.382 2.92764C100.15 2.92764 99.9629 3.11513 99.9629 3.34642C99.9629 3.57771 100.15 3.7652 100.382 3.7652C100.418 3.7652 100.45 3.75333 100.484 3.74473L101.489 4.75054L101.785 4.45457L101.786 4.45416ZM112.104 3.34601C112.104 3.11472 111.916 2.92723 111.685 2.92723C111.454 2.92723 111.266 3.11472 111.266 3.34601C111.266 3.38203 111.278 3.41437 111.287 3.44794L110.281 4.45375L110.577 4.74972L111.583 3.74391C111.616 3.75251 111.649 3.76438 111.685 3.76438C111.916 3.76438 112.103 3.57689 112.103 3.3456L112.104 3.34601Z" fill="#1DAF4F"/>
</svg>
